<svg xmlns="http://www.w3.org/2000/svg" width="566.93" height="566.929" viewBox="0 0 566.93 566.929"><path fill="#DD464C" d="M0 80.99V56.692C0 25.38 25.384 0 56.695 0h85.04v80.99H0z"/><path fill="#FD8B19" d="M0 80.99h141.733v80.99H0z"/><path fill="#FDCC59" d="M141.733 242.97H0v-80.99h141.733"/><path fill="#8FC13E" d="M141.733 323.958H0V242.97h141.733"/><path fill="#149B93" d="M0 323.958h141.733v80.99H0z"/><path fill="#1290BF" d="M0 404.95h141.733v80.988H0z"/><path fill="#C85E7C" d="M0 510.234v-24.296h141.733v80.99h-85.04C25.383 566.928 0 541.544 0 510.234z"/><path fill="#322931" d="M141.733 0h368.502c31.312 0 56.692 25.38 56.692 56.692v453.542c0 31.31-25.38 56.693-56.69 56.693H141.732V0z"/><text transform="translate(205.465 424.95)" fill="#D5D3D5" font-family="'Minimo-Bold'" font-size="74.25">hopscotch</text></svg>