<svg xmlns="http://www.w3.org/2000/svg" width="566.93" height="566.929" viewBox="0 0 566.93 566.929"><path fill="#DD464C" d="M0 80.99V56.692C0 25.38 25.384 0 56.695 0h85.04v80.99H0z"/><path fill="#FD8B19" d="M0 80.99h141.732v80.99H0V80.99z"/><path fill="#FDCC59" d="M141.733 242.97H0v-80.99h141.732"/><path fill="#8FC13E" d="M141.733 323.958H0V242.97h141.732"/><path fill="#149B93" d="M0 323.958h141.732v80.99H0v-80.99z"/><path fill="#1290BF" d="M0 404.95h141.732v80.99H0v-80.99z"/><path fill="#C85E7C" d="M0 510.234V485.94h141.732v80.987h-85.04C25.382 566.927 0 541.544 0 510.234z"/><path fill="#322931" d="M141.733 0h368.502c31.312 0 56.692 25.38 56.692 56.692v453.542c0 31.31-25.38 56.693-56.69 56.693H141.732V0z"/><path d="M240.065 409.208v14.48c0 .668-.594 1.262-1.262 1.262h-6.088c-.668 0-1.262-.594-1.262-1.263v-14.553c0-4.23-1.856-6.682-6.088-6.682-4.084 0-6.088 3.118-6.088 6.162v15.072c0 .67-.594 1.263-1.262 1.263h-6.09c-.667 0-1.26-.6-1.26-1.27v-49.45c0-.67.593-1.26 1.26-1.26h6.09c.668 0 1.262.59 1.262 1.26v23.47c1.93-2.53 6.014-3.35 7.796-3.35 9.354 0 12.992 6.532 12.992 14.85zm38.98.892c0 10.395-6.83 15.74-15.59 15.74s-15.593-5.346-15.593-15.74c0-10.396 6.83-15.74 15.592-15.74 8.76 0 15.592 5.345 15.592 15.74zm-8.54 0c0-5.718-3.933-7.5-7.052-7.5-3.118 0-7.054 1.782-7.054 7.5 0 5.717 3.93 7.5 7.05 7.5 3.12 0 7.05-1.783 7.05-7.5zm48.783.223c0 7.944-4.604 15.295-13.81 15.518-2.154 0-6.09-.29-8.91-3.34v23.47c0 .67-.595 1.26-1.263 1.26h-6.09c-.667 0-1.26-.59-1.26-1.26V410.1c0-10.098 6.83-15.74 15.59-15.74s15.743 6.162 15.743 15.963zm-8.538-.223c0-5.346-4.084-7.573-7.203-7.573-3.118 0-6.98 1.855-6.98 7.647 0 5.643 4.01 7.5 7.202 7.5 3.12 0 6.98-2.228 6.98-7.574zm42.1 6.088c0 6.534-6.684 9.652-12.55 9.652-5.048 0-10.765-1.336-12.548-7.5-.223-.815.223-1.41.892-1.632l4.454-1.41c.67-.224 1.338.222 1.71.815 1.112 1.56 3.266 2.302 5.27 2.302 2.896 0 4.158-1.188 4.38-2.153.298-2.004-2.08-2.228-4.75-2.747-5.05-.816-11.956-1.856-11.956-9.28 0-7.5 6.46-9.653 12.55-9.876 4.825-.23 10.32 1.93 12.473 7.27.297.67-.074 1.41-.743 1.63l-4.454 1.78c-.67.22-1.263 0-1.708-.67-1.188-1.71-3.342-2.38-5.346-2.38-2.896 0-4.455 1.04-4.455 2.15 0 2.374 2.82 2.3 6.16 2.894 4.67.594 10.84 2.375 10.62 9.132zm30.144-1.336c.445-.67 1.04-.892 1.78-.67l5.42 2.303c.67.224.967.966.67 1.634-2.6 5.12-7.647 7.72-13.885 7.72-8.77 0-15.6-5.35-15.6-15.74s6.83-15.74 15.59-15.74c6.46 0 11.73 2.74 14.18 8.39.3.67-.08 1.41-.74 1.63l-5.65 1.93c-.67.22-1.41-.15-1.78-.74-1.41-2.31-3.94-2.97-6.02-2.97-3.12 0-7.055 1.78-7.055 7.5s3.936 7.5 7.054 7.5c2.08-.01 4.53-.67 6.014-2.75zm46.11-4.752c0 10.395-6.83 15.74-15.593 15.74-8.76 0-15.59-5.346-15.59-15.74 0-10.396 6.83-15.74 15.6-15.74s15.6 5.345 15.6 15.74zm-8.54 0c0-5.718-3.935-7.5-7.053-7.5s-7.05 1.782-7.05 7.5c0 5.717 3.94 7.5 7.06 7.5s7.06-1.783 7.06-7.5zm32.003 13.587c0 .67-.595 1.263-1.263 1.263h-6.09c-.667 0-1.26-.594-1.26-1.263v-20.12h-7.65c-.667 0-1.26-.595-1.26-1.264v-5.79c0-.67.593-1.263 1.26-1.263h7.65v-11.36c0-.67.593-1.263 1.26-1.263h6.09c.668 0 1.263.594 1.263 1.263v11.36h7.646c.67 0 1.263.594 1.263 1.262v5.79c0 .67-.594 1.264-1.263 1.264h-7.646v20.12zm34.97-8.835c.445-.67 1.04-.892 1.782-.67l5.42 2.303c.66.224.96.966.66 1.634-2.6 5.12-7.65 7.72-13.89 7.72-8.76 0-15.598-5.35-15.598-15.74s6.83-15.74 15.592-15.74c6.46 0 11.73 2.74 14.18 8.39.297.67-.074 1.41-.74 1.63l-5.646 1.93c-.67.22-1.41-.15-1.783-.74-1.41-2.31-3.937-2.97-6.015-2.97-3.12 0-7.057 1.78-7.057 7.5s3.934 7.5 7.053 7.5c2.08-.01 4.53-.67 6.015-2.75zm46.183-5.644v14.48c0 .668-.595 1.262-1.263 1.262h-6.088c-.67 0-1.27-.594-1.27-1.263v-14.553c0-4.23-1.86-6.682-6.09-6.682-4.08 0-6.09 3.118-6.09 6.162v15.072c0 .67-.6 1.263-1.27 1.263h-6.09c-.67 0-1.266-.6-1.266-1.27v-49.45c0-.67.594-1.26 1.264-1.26h6.087c.67 0 1.26.59 1.26 1.26v23.47c1.93-2.53 6.014-3.35 7.797-3.35 9.354 0 12.993 6.532 12.993 14.85z" fill="#D5D3D5"/></svg>