<svg version="1.1" id="Layer_1" xmlns="http://www.w3.org/2000/svg" x="0" y="0" viewBox="0 0 566.9 566.9" xml:space="preserve"><defs/><style>.st1{fill:none}.st2{fill:#fc332b}.st3{fill:#8fc13e}.st4{fill:#fedb0a}.st5{fill:#c566c5}.st6{fill:#7d3765}.st7{fill:#19988b}.st8{fill:#67f0b6}.st9{fill:#fd8b19}.st11{fill:#233f88}.st13{fill:#e12a5b}.st14{fill:#236bb5}</style><path d="M128.5 60.3zM240.3 74.6c1.4-.3 3-.4 4.6-.5-1.7 0-3.2.2-4.6.5zM255.9 71.4c-.3 1.1-.5 2.2-.7 3.3.3-1.1.4-2.2.7-3.3zM316.1 67.1c-.4-.1-.7-.2-1.1-.2.4.1.8.1 1.1.2zM238.1 75l-2.1.6 2.1-.6zM331.9 95.6l-2.7-.3 2.7.3zM232 457.6c.7.6 1.2 1.3 1.8 1.9-.6-.6-1.1-1.3-1.8-1.9zM260.7 481.5c1.7-1.3 3.5-2.6 5.2-3.9-1.8 1.3-3.5 2.6-5.2 3.9zM235.4 461.4c-.3-.4-.6-.8-1-1.2.3.4.7.8 1 1.2zM236.6 462.9l-1.2-1.5 1.2 1.5zM466.3 115.6c.1.3.1.7.1 1 0-.3 0-.6-.1-1zM464.2 112a7.6 7.6 0 012 3.4c-.2-1.1-.8-2.3-2-3.4zM463.9 110.9c-.2-.4-.5-.7-.9-1.1.4.4.7.7.9 1.1zM466.4 118.4c-.1.4-.1.8-.2 1.1 0-.4.1-.7.2-1.1z"/><path class="st2" d="M432.7 313c3.8-1.7 6.7-3.7 8.9-5.8.5-.4.9-.9 1.3-1.3-1.2-1-2.3-2.2-3.3-3.4-2-2.6-3.5-5.5-4.4-8.8-1-3.3-1.5-6.7-1.5-10.3 0-3.4.5-6.8 1.4-10.1.9-3.3 2.4-6.3 4.4-8.9 2-2.6 4.5-4.7 7.5-6.3 3-1.6 6.6-2.4 10.7-2.4 1.3 0 2.6.1 3.8.3 0 0 0-.1.1-.1 5.5-6.7 14.6-12.6 23.1-18.6-1.5-.9-3.1-1.8-4.8-2.6-6.5-3.1-13.7-4.6-21.7-4.6-7.8 0-15 1.5-21.5 4.4a53.7 53.7 0 00-28.2 28.6c-2.7 6.4-4 13.1-4 19.9a54.02 54.02 0 0010.9 32.4c6.5.3 12.9-.4 17.3-2.4z"/><path class="st3" d="M98 477.4c-.8 7.1 2.9 14.2 9.9 21.3 2.7 2.7 6.5 5.2 11 7.5v-31.8c-13-3.8-20.3-2.8-20.9 3z"/><path class="st4" d="M302.7 492.3c-2.4 3.9-5.5 7.5-12.6 10.2-4.7 1.8-7.8 1.4-11.6-1.3-4.6-3.2-6.4-6.6-8.7-10-1.1-1.7-2.3-3.3-3.7-4.9-1.4-1.6-3.1-3.2-5.4-4.8-6.3-.5-8.9-2.6-11.4-4.6-4.6-3.8-7.5-7.8-10.9-11.7-.7-.8-1.3-1.5-1.9-2.3l-1.2-1.5c-.3-.4-.6-.8-1-1.2-.2-.2-.4-.5-.6-.7-.6-.6-1.1-1.3-1.8-1.9v2c0 6.7 1.3 13.3 3.8 19.8 2.6 6.5 6.2 12.3 10.9 17.4 4.7 5.1 10.2 9.2 16.7 12.3a49 49 0 0021.4 4.7c4.4 0 9-.5 13.7-1.6 4.7-1.1 9.1-2.7 13.2-4.7 4.1-2.1 7.7-4.6 10.9-7.7 3.2-3.1 5.6-6.5 7.2-10.3l-20.5-12.3c-.5.5-1 1-1.4 1.5-3.9 4.3-2.5 9.2-5.1 13.6z"/><path class="st5" d="M303.7 63.7c3.6 1.2 7.4 2.2 11.3 3.1.4.1.7.2 1.1.2-4.1-3.9-8.9-7.2-14.3-9.7-4.3-2-8.9-3.3-13.8-4 0 .2.1.4.1.6 1.7 4.1 7.6 7.3 15.6 9.8z"/><path class="st6" d="M431.4 57.4c-1.1-1.3-2.2-2.7-3.1-4h-5.5v33.8c1.4-.6 2.9-1.4 4.6-2.5 12.6-7.9 12.6-17.2 4-27.3z"/><path class="st7" d="M108.4 313.7c-4.8 6.7-3.4 15.2-2.9 23.2 4.4-.1 8.8-.6 13.2-1.7 4.8-1.1 9.1-3 12.9-5.5 3.8-2.6 6.8-6 9.2-10.3 2.3-4.3 3.5-9.6 3.5-15.9 0-1.2 0-2.3-.1-3.4-3.8 1.1-7.6 2.1-11.5 3.1-9.4 2.6-18.4 2.4-24.3 10.5z"/><path class="st8" d="M244.1 304.4c-6.2-16.2-7.8-32-5.4-47.6-1.2 2.1-2.2 4.3-3.1 6.6-2.4 6.2-3.6 12.5-3.6 18.9 0 6.7 1.3 13.3 3.8 19.8 1.5 3.8 3.4 7.4 5.6 10.8 3.5-2.4 3.9-5.4 2.7-8.5zM246.1 424c-4.6 4.9-8.2 10.5-10.6 16.7v.1c2.4-1.9 5.5-3.6 9-5.1 1.6-.7 3.2-1.3 4.9-2 1.1-.4 2.2-.9 3.4-1.3 2.3-.8 4.5-1.7 6.7-2.6 14-5.6 20-12.8 21.8-21.1.1-.4.2-.8.2-1.2-6.8.4-13 1.9-18.6 4.4a59.2 59.2 0 00-16.8 12.1z"/><path class="st2" d="M466.1 119.5c.1-.4.2-.7.2-1.1.1-.4.1-.8.1-1.1v-.6c0-.3-.1-.7-.1-1 0-.1 0-.2-.1-.3-.3-1.1-.9-2.2-2-3.4-9.1-4.8-15.3-5.3-25-2.3-7.8 2.4-12.2 5.8-16.4 9.4v26c5.6-1 11-2.2 16.2-3.5 5-1.3 9.2-2.8 12.6-4.5v-11h12.2c.8-1.6 1.5-3.2 1.9-4.9.2-.6.3-1.1.4-1.7z"/><path class="st9" d="M266.1 486.3c1.4 1.6 2.6 3.3 3.7 4.9 2.3 3.4 4 6.8 8.7 10 3.9 2.7 6.9 3.1 11.6 1.3 7-2.7 10.2-6.3 12.6-10.2 2.7-4.4 1.3-9.3 5-13.6.4-.5.9-1 1.4-1.5l-3-1.8c-.9 2.4-2.1 4.4-3.6 6-1.5 1.6-3.3 3-5.2 4-1.9 1-3.9 1.8-6 2.2-2.1.4-4.1.7-6.1.7-3.7 0-7.1-.8-10.1-2.3-3-1.5-5.5-3.6-7.6-6.1-.6-.7-1.1-1.5-1.6-2.3-1.8 1.3-3.5 2.6-5.2 3.9 2.2 1.6 3.9 3.2 5.4 4.8z"/><path class="st3" d="M460.3 312.4c-9.6 1.3-17 4-25.5 5.9-5.3 1.2-9.4 2.8-12.5 4.6 3.9 3.6 8.4 6.6 13.5 8.9 6.5 3.1 13.7 4.6 21.7 4.6 7.8 0 14.9-1.5 21.5-4.4 6.6-3 12.2-6.9 16.9-11.7l.1-.1c-.5-.4-.9-.8-1.4-1.2-7.9-6.3-20.1-8.5-34.3-6.6zM440.2 408.1h-28.8V513h19.5c3.8-2.5 6.9-5.3 9.3-8.3v-32.8h5.2c-.1-8.5.6-16.9 2.8-25.1h-8v-38.7z"/><path d="M266.1 486.3c-1.4-1.6-3.1-3.2-5.4-4.8 2.2 1.6 3.9 3.2 5.4 4.8z" fill="#5096d1"/><path class="st2" d="M141.4 433.2a39.3 39.3 0 00-13.2-4.3c-14.2-2.2-23.3-.4-27 5.8-1.8 3.1-5.6 5.2-11.2 6.6V513h28.8v-6.8c-4.6-2.2-8.4-4.8-11-7.5-7.1-7.1-10.7-14.2-9.9-21.3.6-5.8 7.9-6.8 21-3v-41.2h22.5z"/><path class="st3" d="M256.4 70.3c-.2.3-.3.7-.4 1.1-.3 1.1-.5 2.2-.7 3.3 1.5 3.3.7 6.5.6 9.7-.1 2.5 1.1 4.5 3.6 6.1.6-1.2 1.3-2.3 2.1-3.4 2-2.6 4.5-4.7 7.5-6.3 3-1.6 6.6-2.4 10.7-2.4 4 0 7.6.8 10.6 2.3 3 1.5 5.5 3.5 7.5 6.1 1.6 2 2.9 4.3 3.9 6.9 7.9-1.4 16.1-2 25.1 1.3.6.2 1.6.2 2.4.4l2.7.3c-.6-3-1.5-6-2.7-8.9-2.5-6.4-6.1-12.1-10.7-17.1l-2.4-2.4c-.4-.1-.7-.2-1.1-.2-3.9-.9-7.6-2-11.3-3.1-8.1-2.6-14-5.7-15.5-9.8-.1-.2-.1-.4-.1-.6-2.6-.4-5.2-.6-7.9-.6-7.4 0-14.2 1.3-20.4 3.9 0 4.5-1.2 9-3.5 13.4z"/><path class="st2" d="M489.3 473.1c-5.7 7.3-6.6 15.1-4.3 23.3 1.6 5.9 1 11.4-1.9 16.6h21.1v-52.5c-6.3 3.8-11.3 8-14.9 12.6z"/><path class="st4" d="M120 53.4v7.4c3-.1 5.8-.3 8.5-.5 4.1-.4 7.9-1 11.3-1.8 3.3-.7 6.2-1.7 9-2.8v-2.3H120zM101.3 434.6c3.7-6.2 12.8-8 27-5.8 5.6.9 9.7 2.5 13.2 4.3h7.6V408H59.8v25.1h30.3v8c5.6-1.2 9.4-3.4 11.2-6.5z"/><path class="st9" d="M240.3 74.6c1.4-.3 3-.4 4.6-.5 3.2-.1 6.6 0 10.3.6.3-1.1.4-2.2.7-3.3.1-.4.3-.7.4-1.1 2.3-4.4 3.5-8.9 3.3-13.6-.4.1-.7.3-1.1.4a53.7 53.7 0 00-17 11.7c-2.1 2.1-3.9 4.4-5.6 6.8l2.1-.6c.8-.1 1.5-.3 2.3-.4z"/><path class="st11" d="M238.1 75c.7-.2 1.4-.3 2.2-.5-.8.2-1.5.4-2.2.5zM255.2 74.7c-3.7-.5-7.2-.7-10.3-.6 3.1-.2 6.6 0 10.3.6zM120 60.8h-1c.3.1.6 0 1 0zM128.5 60.3a114.33 114.33 0 000 0z"/><path class="st6" d="M296.6 133.8c-16.2 1.2-22 6.2-25.4 12.1-2.3 4-2.6 8.2-1.9 12.4 3.2.6 6.6.9 10.1.9 7.8 0 14.9-1.5 21.5-4.4 6.6-3 12.2-6.9 16.9-11.7.6-.6 1.2-1.2 1.7-1.9-2-1.6-4.4-3.1-7.4-4.6-4.3-2.4-9.1-3.3-15.5-2.8z"/><path d="M283.5 245.8c-5.9-4.8-14.6-6.4-25.1-4.8-3.1.5-5.8 1.1-8.1 1.8-1.4 1.2-2.8 2.5-4.1 3.9-2.9 3.1-5.4 6.5-7.5 10.1-2.4 15.6-.8 31.4 5.4 47.6 1.2 3.1.8 6.1-2.7 8.4 1.6 2.3 3.3 4.6 5.2 6.7 4.7 5.1 10.2 9.2 16.7 12.3a49 49 0 0021.4 4.7c4.4 0 9-.5 13.7-1.6 4.7-1.1 9.1-2.7 13.2-4.7 4.1-2.1 7.7-4.6 10.9-7.7 3.2-3.1 5.6-6.5 7.2-10.3l-23.5-14c-.9 2.4-2.1 4.4-3.6 6-1.5 1.6-3.3 3-5.2 4-1.9 1-3.9 1.8-6 2.2-2.1.4-4.1.7-6.1.7-3.7 0-7.1-.8-10.1-2.3-3-1.5-5.5-3.6-7.6-6.1-2.1-2.6-3.6-5.5-4.7-8.9-1.1-3.3-1.6-6.8-1.6-10.5 0-3.3.5-6.5 1.4-9.8.9-3.3 2.4-6.3 4.3-8.9 1.9-2.6 4.4-4.7 7.4-6.4 3-1.6 6.6-2.4 10.7-2.4 2 0 4 .2 6.1.6.1 0 .2.1.3.1-1.2-3.7-3.7-7.2-8-10.7z" fill="#1290bf"/><path class="st9" d="M326 248.8c-3.5-5-8.2-9.1-14-12.4-7.4-4.2-16.2-6.3-26.4-6.3-8.5 0-16 1.5-22.6 4.6-4.8 2.2-9 4.9-12.7 8.1 2.3-.7 5-1.4 8.1-1.8 10.6-1.6 19.3 0 25.1 4.8 4.3 3.5 6.8 7 8 10.6 2 .4 3.9 1.1 5.8 2a18.79 18.79 0 018.9 9.3c.2.3.3.7.5 1l1.8-1.3 15.1-10.8 5.1-3.6-2.7-4.2z"/><path class="st6" d="M422.3 323c3.2-1.9 7.2-3.4 12.5-4.6 8.5-2 15.8-4.6 25.5-5.9 14.2-2 26.4.3 34.4 6.6.5.4.9.8 1.4 1.2 4.7-4.8 8.3-10.4 11-16.7 2.7-6.4 4-13 4-19.9 0-6.7-1.3-13.2-3.8-19.7-2.5-6.4-6.1-12.1-10.7-17.1-3.4-3.7-7.4-6.9-11.9-9.6-8.4 6-17.6 11.9-23.1 18.6 0 0 0 .1-.1.1a21.27 21.27 0 0114.2 8.1c2 2.5 3.5 5.4 4.5 8.7 1 3.3 1.5 6.7 1.5 10.3 0 3.4-.5 6.8-1.4 10.2-.9 3.4-2.4 6.3-4.3 8.9a22.4 22.4 0 01-7.5 6.4c-3.1 1.6-6.6 2.4-10.8 2.4-4.1 0-7.7-.8-10.7-2.4-1.5-.8-2.9-1.7-4.2-2.8-.4.5-.9.9-1.3 1.3-2.3 2.1-5.2 4.1-8.9 5.8-4.4 2-10.8 2.7-17.3 2.5a49.06 49.06 0 007 7.6z"/><path class="st13" d="M109.3 270c-1.7-.5-3.4-1-4.9-1.5-2.4-.7-4.5-1.4-6.1-2.1-1.7-.7-3-1.6-3.8-2.4-.9-.9-1.3-2-1.3-3.4 0-1.9.8-3.2 2.3-4 1.5-.8 3.6-1.2 6.1-1.2 3.2 0 6.4.5 9.7 1.6 1.7.5 3.3 1.1 4.9 1.7.1-.3.2-.5.2-.8.5-1.9.9-3.9 1.9-5.8 4.5-7.8 13-11.4 22-11.6-2-1-4.2-2-6.5-3-3-1.3-6.1-2.6-9.5-3.7-3.4-1.1-6.9-2.1-10.6-2.8-3.6-.7-7.4-1.1-11.2-1.1-5.2 0-10.2.8-14.9 2.3a39.6 39.6 0 00-12.5 6.7c-3.6 3-6.5 6.6-8.6 11.1-2.1 4.4-3.2 9.6-3.2 15.4 0 3.8.5 7.2 1.6 10.2 1 3 2.6 5.6 4.8 7.9 1.1 1.2 2.4 2.3 3.8 3.3 5.5-1.9 11.1-3.8 16.6-5.8 8.8-3.1 15-6.8 19.2-11z"/><path class="st7" d="M332.3 97.8c-.1-.8-.3-1.5-.4-2.2l-2.7-.3c-.8-.1-1.8-.1-2.4-.4-9-3.3-17.2-2.8-25.1-1.3l.6 1.8c1 3.3 1.5 6.7 1.5 10.3 0 3.4-.5 6.8-1.4 10.2-.9 3.4-2.4 6.3-4.3 8.9a22.4 22.4 0 01-7.5 6.4c-3.1 1.6-6.6 2.4-10.8 2.4-4.1 0-7.7-.8-10.7-2.4-3-1.6-5.5-3.6-7.5-6.2s-3.4-5.5-4.4-8.8c-1-3.3-1.5-6.7-1.5-10.3 0-3.4.5-6.8 1.4-10.1.6-2 1.3-3.8 2.2-5.5-2.5-1.6-3.7-3.6-3.6-6.1.1-3.2.9-6.4-.6-9.7-3.7-.5-7.2-.7-10.3-.6-1.6.1-3.1.2-4.6.5-.8.1-1.5.3-2.2.5l-2.1.6c-2.2 3.1-4 6.5-5.5 10.1-2.7 6.4-4 13.1-4 19.9 0 6.8 1.3 13.4 3.8 19.8 2.6 6.4 6.2 12.1 10.8 17.1 4.6 5 10.2 9 16.7 12 3.6 1.7 7.5 2.9 11.6 3.7-.7-4.2-.5-8.4 1.9-12.4 3.4-5.9 9.2-10.8 25.4-12.1 6.4-.5 11.2.4 15.7 2.7 3 1.5 5.4 3.1 7.4 4.6 3.9-4.4 7-9.4 9.3-15a50.54 50.54 0 003.3-28.1z"/><path class="st8" d="M439.2 109.7c9.8-3 15.9-2.5 25 2.3 0-.4-.1-.7-.3-1.1-.2-.4-.5-.7-.9-1.1-.7-.7-1.6-1.4-2.3-2.1-2.4-2.3-4.2-4.5-5.6-6.8h-3.5V78.5h4.6c1.3-1.8 2.9-3.6 4.8-5.3 4.9-4.6 15-6.8 27.8-7.4 1.8-.1 3.5-.2 5-.4-.1-.2-.3-.3-.4-.5-3.1-3.4-6.8-6.2-11.2-8.3-4.3-2.1-9.1-3.2-14.2-3.2h-39.7c1 1.3 2 2.7 3.1 4 8.6 10.1 8.5 19.4-4 27.3-1.7 1.1-3.2 1.9-4.6 2.5v31.9c4.2-3.6 8.6-7 16.4-9.4z"/><path class="st11" d="M329.2 95.3c0 .4.2.7.5 1.1-.4-.3-.6-.7-.5-1.1z"/><path class="st7" d="M430.9 513h9.3v-8.3c-2.4 3-5.5 5.8-9.3 8.3z"/><path class="st5" d="M445.4 471.9h30V513h7.7c2.9-5.2 3.6-10.7 1.9-16.6-2.3-8.2-1.4-16 4.3-23.3 3.6-4.6 8.6-8.8 14.9-12.6v-52.4h-28.8v38.7h-27.1c-2.4 8.2-3.1 16.6-2.9 25.1zM129.3 265l7.1-13.6c-8.5-1.6-16.2-2.7-18.2.6-1.1 1.9-1.5 3.8-1.9 5.8-.1.3-.1.5-.2.8 1.4.5 2.8 1.1 4.1 1.7 3.1 1.4 6.2 2.9 9.1 4.7z"/><path class="st3" d="M125.7 276c-3.9-1.8-8.3-3.4-13.1-4.9-1.2-.4-2.3-.7-3.3-1.1-4.2 4.2-10.4 7.9-19.3 11-5.5 1.9-11.1 3.8-16.6 5.8 1.4 1 2.9 2 4.5 2.9 3.3 1.8 7.3 3.5 12 5.1 3.2 1.1 6.1 2 8.9 2.8 2.8.8 5.3 1.6 7.5 2.4.8.3 1.5.6 2.2.9 7.9-4.2 17.8-11.2 27.2-18.6-2.8-2.5-6.1-4.6-10-6.3zM92.6 309.2c-4-1.2-7.6-2.5-10.7-4-3.7-1.7-7.3-3.6-10.8-5.8l-12.4 25.3c3.2 1.9 6.6 3.5 10.3 5 3.7 1.5 7.5 2.8 11.5 3.8 4 1.1 8 1.9 12 2.5 4 .6 8 .9 11.8.9h.9c-1.2-8.4-4.4-19.6-5.8-26.3-2.3-.3-4.5-.7-6.8-1.4z"/><path class="st4" d="M108.4 313.7c5.9-8.1 14.8-8 24.3-10.4 3.8-1 7.7-2 11.5-3.1-.3-3.5-1-6.5-2.1-9.1-1.5-3.4-3.6-6.4-6.4-8.8-9.4 7.4-19.3 14.4-27.2 18.6 1.1.6 2.1 1.1 2.9 1.8 1.2 1 1.8 2.3 1.8 3.8 0 1.4-.6 2.5-1.8 3.3-1.2.8-3.4 1.3-6.6 1.3-1.8 0-3.6-.1-5.4-.4 1.4 6.7 4.6 17.9 5.8 26.3h.3c-.5-8.1-1.9-16.6 2.9-23.3z"/><path class="st5" d="M136.4 251.4l5.3-10.2c-.5-.2-1-.5-1.5-.7-9 .2-17.5 3.8-22 11.6 2-3.4 9.7-2.3 18.2-.7z"/><path class="st6" d="M84.8 91.1V53.4H56v36.1c10.8 4 20.3 4.6 28.8 1.6z"/><path class="st14" d="M235.3 441.4c.1-.2.2-.4.2-.7l-.3.3c0 .2.1.3.1.4z"/><path class="st13" d="M312 413.8c-7.4-4.2-16.2-6.3-26.4-6.3-1.4 0-2.7.1-4 .1-.1.4-.1.8-.2 1.2-1.8 8.3-7.8 15.5-21.8 21.1-2.2.9-4.4 1.7-6.7 2.6-1.1.4-2.3.8-3.4 1.3-1.7.6-3.3 1.3-4.9 2-3.5 1.5-6.7 3.2-9 5.1-.1.2-.2.4-.2.7.2.9.4 1.8.8 2.6-.3-.9-.5-1.8-.8-2.6-1.1 3-2 6-2.5 9.1-.4 2.3-.7 4.7-.8 7.1.7.6 1.2 1.3 1.8 1.9.2.2.4.5.6.7.3.4.7.8 1 1.2l1.2 1.5c.6.8 1.2 1.5 1.9 2.3 3.3 3.9 6.3 7.9 10.9 11.7 2.4 2 5.1 4.1 11.4 4.6 1.7-1.3 3.5-2.6 5.2-3.9-1.3-2-2.3-4.2-3.1-6.6-1.1-3.3-1.6-6.8-1.6-10.5 0-3.3.5-6.5 1.4-9.8.9-3.3 2.4-6.3 4.3-8.9 1.9-2.6 4.4-4.7 7.4-6.4 3-1.6 6.6-2.4 10.7-2.4 2 0 4 .2 6.1.6 2.1.4 4.2 1.1 6.1 2.1 2 1 3.8 2.3 5.4 4 1.6 1.7 2.9 3.8 3.9 6.4l22-15.7c-3.7-7.1-9.3-12.7-16.7-16.8z"/><path class="st14" d="M232 457.6zM234.4 460.2c-.2-.2-.4-.5-.6-.7.2.2.4.5.6.7zM235.5 440.8l-.3.3.3-.3zM244.6 435.7c-3.5 1.5-6.7 3.2-9 5.1 2.3-1.9 5.5-3.6 9-5.1zM249.5 433.7c1.1-.4 2.2-.9 3.4-1.3-1.2.4-2.3.9-3.4 1.3zM235.2 441.1c0 .1.1.3.1.4 0-.2-.1-.3-.1-.4zM235.3 441.4z"/><path class="st5" d="M461 73.2c-1.9 1.8-3.5 3.5-4.8 5.3h9.9c1.8 0 3.5.8 5.3 2.4 1.8 1.6 2.7 4.5 2.7 8.9 0 4.2-.8 7.2-2.3 8.8-1.5 1.6-3.2 2.4-4.9 2.4h-11.7c1.4 2.2 3.3 4.5 5.6 6.8.7.7 1.6 1.4 2.3 2.1.3.4.6.7.9 1.1.2.4.3.7.3 1.1a7.6 7.6 0 012 3.4c0 .1 0 .2.1.3.1.3.1.7.1 1v.6c0 .4 0 .8-.1 1.1-.1.4-.1.8-.2 1.1-.1.6-.3 1.1-.4 1.7-.4 1.7-1.1 3.3-1.9 4.9h4.9a32.72 32.72 0 0025-11.1c3-3.4 5.3-7.3 7-11.7 1.7-4.4 2.5-8.9 2.5-13.5 0-4.4-.9-8.8-2.7-13.2-1.7-4.2-4-7.9-6.9-11.2-1.6.2-3.2.3-5 .4-12.7.5-22.8 2.7-27.7 7.3z"/><path class="st4" d="M422.8 145.1v13.2h28.8v-21.2c-3.4 1.7-7.5 3.2-12.6 4.5-5.2 1.3-10.6 2.5-16.2 3.5z"/><path class="st14" d="M410 249c0 .1-.1.1-.1.2 0 0 0-.1.1-.2zM466.3 115.4c0 .1 0 .2.1.3-.1-.2-.1-.3-.1-.3zM466.5 116.6v0z"/><path class="st9" d="M84.8 127.8v-10.5H120v9.1c4.6-2 8-4.5 9.9-7.5 2.4-3.9 3.4-8 2.1-12-1.8-5.7 1.5-10.7 9-15 2.4-1.4 5-2.6 7.8-3.7V55.7c-2.7 1.1-5.7 2-9 2.8-3.5.8-7.2 1.4-11.3 1.8-2.7.3-5.5.4-8.5.5v31.3H84.8v-1c-8.4 3-18 2.4-28.8-1.6v41.8c6.4-3.9 17.8-5.8 28.8-3.5z"/><path class="st5" d="M84.8 158.3v-30.6c-11-2.2-22.3-.4-28.8 3.5v27h28.8z"/><path class="st2" d="M132 106.8c1.3 4.1.3 8.1-2.1 12-1.8 3-5.3 5.4-9.9 7.5v32h28.8V88.1a56.2 56.2 0 00-7.8 3.7c-7.5 4.3-10.8 9.3-9 15z"/></svg>